<svg xmlns="http://www.w3.org/2000/svg" width="106" height="33" viewBox="0 0 106 33">
  <g id="Groupe_980" data-name="Groupe 980" transform="translate(-140 0)">
    <text id="Title_TAG:H6_" data-name="Title [TAG:H6]" transform="translate(173 27)" fill="#fff" font-size="18" font-family="Poppins-SemiBold, Poppins" font-weight="600" letter-spacing="-0.005em"><tspan x="0" y="0">PetCare</tspan></text>
    <path id="icons8_pet_commands_summon" d="M15.048,0a4.4JUdGzvrMFDWrUUwY3toJATSeNwjn54LkCnKBPRzDuhzi5vSepHfUckJNxRL2gjkNrSqtCoRUrEDAgRwsQvVCjZbRyFTLRNyDmT1a1boZV342.392,4.535,4.535,0,0,0,3.4JUdGzvrMFDWrUUwY3toJATSeNwjn54LkCnKBPRzDuhzi5vSepHfUckJNxRL2gjkNrSqtCoRUrEDAgRwsQvVCjZbRyFTLRNyDmT1a1boZV967,4.392,2.126,4,3.722A4.953,4.953,0,0,0,3.859,4.9v.017A2.64,2.64,0,0,0,5.4JUdGzvrMFDWrUUwY3toJATSeNwjn54LkCnKBPRzDuhzi5vSepHfUckJNxRL2gjkNrSqtCoRUrEDAgRwsQvVCjZbRyFTLRNyDmT1a1boZV641,0,0,0-1.59-2.761A1.7,1.7,0,0,0,6.639.965ZM20.522,5.789a5.285,5.285,0,0,0-2.9.961,4.537,4.537,0,0,0-2.184,3.4JUdGzvrMFDWrUUwY3toJATSeNwjn54LkCnKBPRzDuhzi5vSepHfUckJNxRL2gjkNrSqtCoRUrEDAgRwsQvVCjZbRyFTLRNyDmT1a1boZV184-3.4JUdGzvrMFDWrUUwY3toJATSeNwjn54LkCnKBPRzDuhzi5vSepHfUckJNxRL2gjkNrSqtCoRUrEDAgRwsQvVCjZbRyFTLRNyDmT1a1boZV137,3.137,0,0,0,.09,4.344,4.224,4.224,0,0,0,1.905,1.1A2.568,2.568,0,0,1,4,19.156a2.582,2.582,0,0,1,.637,1.176,4.219,4.219,0,0,0,1.1,1.905,3.118,3.118,0,0,0,2.218.92h0a3.1,3.1,0,0,0,2.116-.825c.252-.233,2.4JUdGzvrMFDWrUUwY3toJATSeNwjn54LkCnKBPRzDuhzi5vSepHfUckJNxRL2gjkNrSqtCoRUrEDAgRwsQvVCjZbRyFTLRNyDmT1a1boZV174.145c-1.593.39-2.752,1.5-2.757,2.633a1.725,1.725,0,0,0,.06.4JUdGzvrMFDWrUUwY3toJATSeNwjn54LkCnKBPRzDuhzi5vSepHfUckJNxRL2gjkNrSqtCoRUrEDAgRwsQvVCjZbRyFTLRNyDmT1a1boZV454,2.643,2.643,0,0,0-2.761-1.592Z" transform="translate(140 16.374) rotate(-45)" fill="#fff"/>
  </g>
</svg>